<svg xmlns="http://www.w3.org/2000/svg" viewBox="0 0 410 410">
  <g>
    <g>
      <circle fill="#2251ca" cx="205" cy="205" r="205"/>
      <path fill="#fff"
            d="M226,192.89c-.9-18.58-2.22-33.53-3.49-47.29l23.68-1.14,2.39,24.82.6,0c9.94-18.2,26.51-29.51,50.19-30.65,35.06-1.69,62.86,26.7,65,70.75,2.51,52.14-28,79.44-62.17,81.09-19.18.92-36.36-6.66-45.75-20.62l-.6,0,3.8,78.81-26.07,1.26Zm27.93,37.4A59.46,59.46,0,0,0,255.62,241c5.67,18,22.16,29.87,41,29,27.87-1.35,42.95-24.9,41.35-58.16-1.4-29.07-17.88-53.2-45.75-51.86-18,.87-34.14,14.56-38.28,34.58a43,43,0,0,0-1.28,10.88Z"/>
      <path fill="#fff"
            d="M199.14,231.3c16.54,8.51,30.15,14.84,42.7,20.63L231,273,208.3,262.67l-.27.53c10.79,17.7,12.3,37.71,1.45,58.79-16.07,31.2-54.56,41.08-93.77,20.89C69.3,319,60.92,278.91,76.57,248.5c8.79-17.07,24-28.16,40.74-29.31l.27-.53L47.43,182.55l12-23.21Zm-46.35,5.49a59.34,59.34,0,0,0-10.15-3.88C124.17,228.8,105.69,237.17,97,254c-12.77,24.81.08,49.65,29.69,64.89,25.87,13.32,55,11.12,67.79-13.69,8.24-16,4.46-36.84-10.81-50.44a42.79,42.79,0,0,0-8.78-6.54Z"/>
      <path fill="#fff"
            d="M179.29,188.87c-15.64,10.06-27.93,18.68-39.21,26.65l-12.82-19.93,20.29-14.48-.33-.5c-20.72.49-38.81-8.21-51.63-28.14-19-29.52-8.3-67.79,28.78-91.65,43.9-28.25,82.8-15.47,101.31,13.3,10.39,16.14,12.42,34.81,5,49.92l.33.51,66.35-42.7,14.12,22ZM197.72,146a59.39,59.39,0,0,0,8.43-6.86c12.79-13.94,14.78-34.13,4.56-50-15.1-23.46-43-24.75-71-6.73-24.48,15.75-37.14,42.09-22,65.55,9.74,15.14,29.68,22.29,49.09,15.86a42.89,42.89,0,0,0,10.06-4.33Z"/>
      <path fill="#fff"
            d="M226,192.89c-.9-18.58-2.22-33.53-3.49-47.29l23.68-1.14,2.39,24.82.6,0c9.94-18.2,26.51-29.51,50.19-30.65,35.06-1.69,62.86,26.7,65,70.75,2.51,52.14-28,79.44-62.17,81.09-19.18.92-36.36-6.66-45.75-20.62l-.6,0,3.8,78.81-26.07,1.26Zm27.93,37.4A59.46,59.46,0,0,0,255.62,241c5.67,18,22.16,29.87,41,29,27.87-1.35,42.95-24.9,41.35-58.16-1.4-29.07-17.88-53.2-45.75-51.86-18,.87-34.14,14.56-38.28,34.58a43,43,0,0,0-1.28,10.88Z"/>
    </g>
  </g>
</svg>
